<mxfile host="app.diagrams.net" modified="2023-04-25T06:07:58.071Z" agent="Mozilla/5.0 (X11; Linux x86_64) AppleWebKit/537.36 (KHTML, like Gecko) Chrome/112.0.0.0 Safari/537.36" version="21.1.2" etag="HU683V7Bhdd3PAp2kmHf" type="github">
  <diagram name="Page-1" id="-eXQGrq3bveKVIrhkafP">
    <mxGraphModel>
      <root>
        <mxCell id="0" />
        <mxCell id="1" parent="0" />
      </root>
    </mxGraphModel>
  </diagram>
</mxfile>
